<mxfile host="65bd71144e">
    <diagram id="Fo4rl5hgtW8sDvK_fd4T" name="Page-1">
        <mxGraphModel dx="1536" dy="787" grid="1" gridSize="10" guides="1" tooltips="1" connect="1" arrows="1" fold="1" page="0" pageScale="1" pageWidth="827" pageHeight="1169" math="0" shadow="0">
            <root>
                <mxCell id="0"/>
                <mxCell id="1" parent="0"/>
                <mxCell id="60" value="Process B: Heat Treatment" style="swimlane;startSize=40;horizontal=0;html=1;" parent="1" vertex="1">
                    <mxGeometry x="80" y="280" width="490" height="170" as="geometry"/>
                </mxCell>
                <mxCell id="63" value="Check Temperature Stability" style="whiteSpace=wrap;html=1;" parent="60" vertex="1">
                    <mxGeometry x="70" y="35" width="100" height="40" as="geometry"/>
                </mxCell>
                <mxCell id="64" value="Perform Heat Treatment" style="whiteSpace=wrap;html=1;" parent="60" vertex="1">
                    <mxGeometry x="310" y="35" width="100" height="40" as="geometry"/>
                </mxCell>
                <mxCell id="70" style="edgeStyle=none;html=1;exitX=1;exitY=0.5;exitDx=0;exitDy=0;startArrow=none;" parent="60" source="105" target="64" edge="1">
                    <mxGeometry relative="1" as="geometry">
                        <mxPoint x="260" y="55" as="sourcePoint"/>
                    </mxGeometry>
                </mxCell>
                <mxCell id="104" value="" style="edgeStyle=none;html=1;exitX=1;exitY=0.5;exitDx=0;exitDy=0;endArrow=none;" edge="1" parent="60" source="63" target="105">
                    <mxGeometry relative="1" as="geometry">
                        <mxPoint x="250" y="455" as="sourcePoint"/>
                        <mxPoint x="390" y="455" as="targetPoint"/>
                    </mxGeometry>
                </mxCell>
                <mxCell id="107" style="edgeStyle=none;html=1;exitX=0.5;exitY=1;exitDx=0;exitDy=0;exitPerimeter=0;entryX=1;entryY=0.5;entryDx=0;entryDy=0;entryPerimeter=0;" edge="1" parent="60" source="105" target="106">
                    <mxGeometry relative="1" as="geometry">
                        <Array as="points">
                            <mxPoint x="245" y="125"/>
                        </Array>
                    </mxGeometry>
                </mxCell>
                <mxCell id="109" value="to hot" style="edgeLabel;html=1;align=center;verticalAlign=middle;resizable=0;points=[];" vertex="1" connectable="0" parent="107">
                    <mxGeometry x="-0.5" relative="1" as="geometry">
                        <mxPoint as="offset"/>
                    </mxGeometry>
                </mxCell>
                <mxCell id="105" value="" style="points=[[0.25,0.25,0],[0.5,0,0],[0.75,0.25,0],[1,0.5,0],[0.75,0.75,0],[0.5,1,0],[0.25,0.75,0],[0,0.5,0]];shape=mxgraph.bpmn.gateway2;html=1;verticalLabelPosition=bottom;labelBackgroundColor=#ffffff;verticalAlign=top;align=center;perimeter=rhombusPerimeter;outlineConnect=0;outline=none;symbol=none;" vertex="1" parent="60">
                    <mxGeometry x="220" y="30" width="50" height="50" as="geometry"/>
                </mxCell>
                <mxCell id="108" style="edgeStyle=none;html=1;exitX=0;exitY=0.5;exitDx=0;exitDy=0;exitPerimeter=0;entryX=0.5;entryY=1;entryDx=0;entryDy=0;" edge="1" parent="60" source="106" target="63">
                    <mxGeometry relative="1" as="geometry">
                        <Array as="points">
                            <mxPoint x="120" y="125"/>
                        </Array>
                    </mxGeometry>
                </mxCell>
                <mxCell id="106" value="" style="points=[[0.145,0.145,0],[0.5,0,0],[0.855,0.145,0],[1,0.5,0],[0.855,0.855,0],[0.5,1,0],[0.145,0.855,0],[0,0.5,0]];shape=mxgraph.bpmn.event;html=1;verticalLabelPosition=bottom;labelBackgroundColor=#ffffff;verticalAlign=top;align=center;perimeter=ellipsePerimeter;outlineConnect=0;aspect=fixed;outline=standard;symbol=timer;" vertex="1" parent="60">
                    <mxGeometry x="160" y="100" width="50" height="50" as="geometry"/>
                </mxCell>
                <mxCell id="77" value="Process A:&lt;br style=&quot;border-color: var(--border-color);&quot;&gt;Batch Cleaning" style="swimlane;startSize=40;horizontal=0;html=1;" parent="1" vertex="1">
                    <mxGeometry x="80" y="150" width="490" height="100" as="geometry">
                        <mxRectangle x="80" y="150" width="50" height="90" as="alternateBounds"/>
                    </mxGeometry>
                </mxCell>
                <mxCell id="103" style="edgeStyle=none;html=1;exitX=1;exitY=0.5;exitDx=0;exitDy=0;" edge="1" parent="77" source="79" target="81">
                    <mxGeometry relative="1" as="geometry"/>
                </mxCell>
                <mxCell id="79" value="Clean Parts" style="whiteSpace=wrap;html=1;" parent="77" vertex="1">
                    <mxGeometry x="100" y="30" width="100" height="40" as="geometry"/>
                </mxCell>
                <mxCell id="81" value="Offload Heat to Shared Sink" style="whiteSpace=wrap;html=1;" parent="77" vertex="1">
                    <mxGeometry x="320" y="30" width="100" height="40" as="geometry"/>
                </mxCell>
            </root>
        </mxGraphModel>
    </diagram>
</mxfile>